<mxfile host="Electron" agent="Mozilla/5.0 (Windows NT 10.0; Win64; x64) AppleWebKit/537.36 (KHTML, like Gecko) draw.io/26.0.4 Chrome/128.0.6613.186 Electron/32.2.5 Safari/537.36" version="26.0.4">
  <diagram name="Page-1" id="7zfNHhzASUEwE-vR4172">
    <mxGraphModel dx="1900" dy="621" grid="1" gridSize="10" guides="1" tooltips="1" connect="1" arrows="1" fold="1" page="1" pageScale="1" pageWidth="850" pageHeight="1100" math="0" shadow="0">
      <root>
        <mxCell id="0" />
        <mxCell id="1" parent="0" />
        <mxCell id="hlCJ8NiJi-qlHMKmsmN_-1" value="" style="shape=umlLifeline;perimeter=lifelinePerimeter;whiteSpace=wrap;html=1;container=1;dropTarget=0;collapsible=0;recursiveResize=0;outlineConnect=0;portConstraint=eastwest;newEdgeStyle={&quot;curved&quot;:0,&quot;rounded&quot;:0};participant=umlActor;" parent="1" vertex="1">
          <mxGeometry x="-20" y="40" width="20" height="760" as="geometry" />
        </mxCell>
        <mxCell id="XqYQCwfPH4HnXKf9k88s-13" value="" style="html=1;points=[[0,0,0,0,5],[0,1,0,0,-5],[1,0,0,0,5],[1,1,0,0,-5]];perimeter=orthogonalPerimeter;outlineConnect=0;targetShapes=umlLifeline;portConstraint=eastwest;newEdgeStyle={&quot;curved&quot;:0,&quot;rounded&quot;:0};" vertex="1" parent="hlCJ8NiJi-qlHMKmsmN_-1">
          <mxGeometry x="5" y="110" width="10" height="270" as="geometry" />
        </mxCell>
        <mxCell id="hlCJ8NiJi-qlHMKmsmN_-4" value="Giao diện" style="shape=umlLifeline;perimeter=lifelinePerimeter;whiteSpace=wrap;html=1;container=1;dropTarget=0;collapsible=0;recursiveResize=0;outlineConnect=0;portConstraint=eastwest;newEdgeStyle={&quot;curved&quot;:0,&quot;rounded&quot;:0};" parent="1" vertex="1">
          <mxGeometry x="215" y="40" width="100" height="760" as="geometry" />
        </mxCell>
        <mxCell id="XqYQCwfPH4HnXKf9k88s-4" value="" style="html=1;points=[[0,0,0,0,5],[0,1,0,0,-5],[1,0,0,0,5],[1,1,0,0,-5]];perimeter=orthogonalPerimeter;outlineConnect=0;targetShapes=umlLifeline;portConstraint=eastwest;newEdgeStyle={&quot;curved&quot;:0,&quot;rounded&quot;:0};" vertex="1" parent="hlCJ8NiJi-qlHMKmsmN_-4">
          <mxGeometry x="50" y="240" width="10" height="40" as="geometry" />
        </mxCell>
        <mxCell id="XqYQCwfPH4HnXKf9k88s-5" value="Hiển thị giỏ hàng" style="html=1;align=left;spacingLeft=2;endArrow=block;rounded=0;edgeStyle=orthogonalEdgeStyle;curved=0;rounded=0;" edge="1" target="XqYQCwfPH4HnXKf9k88s-4" parent="hlCJ8NiJi-qlHMKmsmN_-4" source="hlCJ8NiJi-qlHMKmsmN_-4">
          <mxGeometry relative="1" as="geometry">
            <mxPoint x="55" y="220" as="sourcePoint" />
            <Array as="points">
              <mxPoint x="110" y="220" />
              <mxPoint x="110" y="260" />
            </Array>
          </mxGeometry>
        </mxCell>
        <mxCell id="XqYQCwfPH4HnXKf9k88s-14" value="" style="html=1;points=[[0,0,0,0,5],[0,1,0,0,-5],[1,0,0,0,5],[1,1,0,0,-5]];perimeter=orthogonalPerimeter;outlineConnect=0;targetShapes=umlLifeline;portConstraint=eastwest;newEdgeStyle={&quot;curved&quot;:0,&quot;rounded&quot;:0};" vertex="1" parent="hlCJ8NiJi-qlHMKmsmN_-4">
          <mxGeometry x="45" y="180" width="10" height="570" as="geometry" />
        </mxCell>
        <mxCell id="hlCJ8NiJi-qlHMKmsmN_-10" value="khách hàng" style="text;html=1;align=center;verticalAlign=middle;resizable=0;points=[];autosize=1;strokeColor=none;fillColor=none;" parent="1" vertex="1">
          <mxGeometry x="-55" y="78" width="90" height="30" as="geometry" />
        </mxCell>
        <mxCell id="hlCJ8NiJi-qlHMKmsmN_-29" value="Database" style="shape=umlLifeline;perimeter=lifelinePerimeter;whiteSpace=wrap;html=1;container=1;dropTarget=0;collapsible=0;recursiveResize=0;outlineConnect=0;portConstraint=eastwest;newEdgeStyle={&quot;curved&quot;:0,&quot;rounded&quot;:0};" parent="1" vertex="1">
          <mxGeometry x="750" y="40" width="100" height="640" as="geometry" />
        </mxCell>
        <mxCell id="XqYQCwfPH4HnXKf9k88s-18" value="" style="html=1;points=[[0,0,0,0,5],[0,1,0,0,-5],[1,0,0,0,5],[1,1,0,0,-5]];perimeter=orthogonalPerimeter;outlineConnect=0;targetShapes=umlLifeline;portConstraint=eastwest;newEdgeStyle={&quot;curved&quot;:0,&quot;rounded&quot;:0};" vertex="1" parent="hlCJ8NiJi-qlHMKmsmN_-29">
          <mxGeometry x="45" y="390" width="10" height="80" as="geometry" />
        </mxCell>
        <mxCell id="hlCJ8NiJi-qlHMKmsmN_-30" value="Controller" style="shape=umlLifeline;perimeter=lifelinePerimeter;whiteSpace=wrap;html=1;container=1;dropTarget=0;collapsible=0;recursiveResize=0;outlineConnect=0;portConstraint=eastwest;newEdgeStyle={&quot;curved&quot;:0,&quot;rounded&quot;:0};" parent="1" vertex="1">
          <mxGeometry x="387" y="40" width="100" height="640" as="geometry" />
        </mxCell>
        <mxCell id="XqYQCwfPH4HnXKf9k88s-16" value="" style="html=1;points=[[0,0,0,0,5],[0,1,0,0,-5],[1,0,0,0,5],[1,1,0,0,-5]];perimeter=orthogonalPerimeter;outlineConnect=0;targetShapes=umlLifeline;portConstraint=eastwest;newEdgeStyle={&quot;curved&quot;:0,&quot;rounded&quot;:0};" vertex="1" parent="hlCJ8NiJi-qlHMKmsmN_-30">
          <mxGeometry x="45" y="360" width="10" height="140" as="geometry" />
        </mxCell>
        <mxCell id="aouMC_MhdnEOJFaF2fXj-1" value="Chọn chức năng giỏ hàng" style="html=1;verticalAlign=bottom;endArrow=block;curved=0;rounded=0;" parent="1" source="hlCJ8NiJi-qlHMKmsmN_-1" edge="1" target="hlCJ8NiJi-qlHMKmsmN_-4">
          <mxGeometry width="80" relative="1" as="geometry">
            <mxPoint x="-10.5" y="169" as="sourcePoint" />
            <mxPoint x="169.5" y="169" as="targetPoint" />
            <Array as="points">
              <mxPoint x="60" y="240" />
            </Array>
          </mxGeometry>
        </mxCell>
        <mxCell id="aouMC_MhdnEOJFaF2fXj-14" value="xác nhận giỏ hàng" style="html=1;verticalAlign=bottom;endArrow=block;curved=0;rounded=0;" parent="1" target="hlCJ8NiJi-qlHMKmsmN_-4" edge="1" source="hlCJ8NiJi-qlHMKmsmN_-1">
          <mxGeometry width="80" relative="1" as="geometry">
            <mxPoint x="-10" y="414" as="sourcePoint" />
            <mxPoint x="264.5" y="414" as="targetPoint" />
            <Array as="points">
              <mxPoint x="120" y="400" />
            </Array>
          </mxGeometry>
        </mxCell>
        <mxCell id="aouMC_MhdnEOJFaF2fXj-17" value="nhập thông tin nhận hàng" style="html=1;verticalAlign=bottom;endArrow=block;curved=0;rounded=0;" parent="1" target="hlCJ8NiJi-qlHMKmsmN_-4" edge="1" source="hlCJ8NiJi-qlHMKmsmN_-1">
          <mxGeometry width="80" relative="1" as="geometry">
            <mxPoint x="-10" y="374" as="sourcePoint" />
            <mxPoint x="264.5" y="374" as="targetPoint" />
            <Array as="points">
              <mxPoint x="130" y="370" />
            </Array>
          </mxGeometry>
        </mxCell>
        <mxCell id="aouMC_MhdnEOJFaF2fXj-18" value="Gửi yêu cầu" style="html=1;verticalAlign=bottom;endArrow=block;curved=0;rounded=0;" parent="1" edge="1" target="hlCJ8NiJi-qlHMKmsmN_-30" source="hlCJ8NiJi-qlHMKmsmN_-4">
          <mxGeometry width="80" relative="1" as="geometry">
            <mxPoint x="160" y="471" as="sourcePoint" />
            <mxPoint x="349.5" y="471" as="targetPoint" />
            <Array as="points">
              <mxPoint x="340" y="420" />
            </Array>
          </mxGeometry>
        </mxCell>
        <mxCell id="aouMC_MhdnEOJFaF2fXj-19" value="Thêm đơn hàng" style="html=1;verticalAlign=bottom;endArrow=block;curved=0;rounded=0;" parent="1" edge="1" target="aouMC_MhdnEOJFaF2fXj-20" source="hlCJ8NiJi-qlHMKmsmN_-30">
          <mxGeometry x="-0.0281" width="80" relative="1" as="geometry">
            <mxPoint x="350" y="480" as="sourcePoint" />
            <mxPoint x="669.5" y="480" as="targetPoint" />
            <mxPoint as="offset" />
            <Array as="points">
              <mxPoint x="560" y="440" />
            </Array>
          </mxGeometry>
        </mxCell>
        <mxCell id="aouMC_MhdnEOJFaF2fXj-20" value=":Đơn hàng" style="shape=umlLifeline;perimeter=lifelinePerimeter;whiteSpace=wrap;html=1;container=1;dropTarget=0;collapsible=0;recursiveResize=0;outlineConnect=0;portConstraint=eastwest;newEdgeStyle={&quot;curved&quot;:0,&quot;rounded&quot;:0};" parent="1" vertex="1">
          <mxGeometry x="572" y="40" width="100" height="640" as="geometry" />
        </mxCell>
        <mxCell id="XqYQCwfPH4HnXKf9k88s-17" value="" style="html=1;points=[[0,0,0,0,5],[0,1,0,0,-5],[1,0,0,0,5],[1,1,0,0,-5]];perimeter=orthogonalPerimeter;outlineConnect=0;targetShapes=umlLifeline;portConstraint=eastwest;newEdgeStyle={&quot;curved&quot;:0,&quot;rounded&quot;:0};" vertex="1" parent="aouMC_MhdnEOJFaF2fXj-20">
          <mxGeometry x="45" y="390" width="10" height="100" as="geometry" />
        </mxCell>
        <mxCell id="aouMC_MhdnEOJFaF2fXj-22" value="thực thi truy vấn" style="html=1;verticalAlign=bottom;endArrow=block;curved=0;rounded=0;" parent="1" edge="1" target="hlCJ8NiJi-qlHMKmsmN_-29" source="aouMC_MhdnEOJFaF2fXj-20">
          <mxGeometry width="80" relative="1" as="geometry">
            <mxPoint x="675" y="487" as="sourcePoint" />
            <mxPoint x="791.5" y="487" as="targetPoint" />
            <Array as="points">
              <mxPoint x="740" y="460" />
            </Array>
          </mxGeometry>
        </mxCell>
        <mxCell id="aouMC_MhdnEOJFaF2fXj-23" value="return" style="html=1;verticalAlign=bottom;endArrow=open;dashed=1;endSize=8;curved=0;rounded=0;" parent="1" edge="1" target="aouMC_MhdnEOJFaF2fXj-20" source="hlCJ8NiJi-qlHMKmsmN_-29">
          <mxGeometry relative="1" as="geometry">
            <mxPoint x="800" y="490" as="sourcePoint" />
            <mxPoint x="670.5238095238096" y="490" as="targetPoint" />
            <Array as="points">
              <mxPoint x="750.5" y="490" />
            </Array>
          </mxGeometry>
        </mxCell>
        <mxCell id="aouMC_MhdnEOJFaF2fXj-25" value="return" style="html=1;verticalAlign=bottom;endArrow=open;dashed=1;endSize=8;curved=0;rounded=0;" parent="1" edge="1" target="hlCJ8NiJi-qlHMKmsmN_-30" source="aouMC_MhdnEOJFaF2fXj-20">
          <mxGeometry x="0.0893" relative="1" as="geometry">
            <mxPoint x="680" y="521" as="sourcePoint" />
            <mxPoint x="349.5" y="521" as="targetPoint" />
            <mxPoint as="offset" />
            <Array as="points">
              <mxPoint x="560" y="510" />
            </Array>
          </mxGeometry>
        </mxCell>
        <mxCell id="aouMC_MhdnEOJFaF2fXj-29" value="return" style="html=1;verticalAlign=bottom;endArrow=open;dashed=1;endSize=8;curved=0;rounded=0;" parent="1" edge="1" target="hlCJ8NiJi-qlHMKmsmN_-4" source="hlCJ8NiJi-qlHMKmsmN_-30">
          <mxGeometry relative="1" as="geometry">
            <mxPoint x="360" y="528" as="sourcePoint" />
            <mxPoint x="169.5" y="528" as="targetPoint" />
            <Array as="points">
              <mxPoint x="360" y="530" />
            </Array>
          </mxGeometry>
        </mxCell>
        <mxCell id="aouMC_MhdnEOJFaF2fXj-31" value="Sửa giỏ hàng" style="html=1;verticalAlign=bottom;endArrow=block;curved=0;rounded=0;" parent="1" edge="1" target="hlCJ8NiJi-qlHMKmsmN_-4" source="hlCJ8NiJi-qlHMKmsmN_-1">
          <mxGeometry width="80" relative="1" as="geometry">
            <mxPoint x="-10" y="390" as="sourcePoint" />
            <mxPoint x="170" y="390" as="targetPoint" />
            <Array as="points">
              <mxPoint x="120" y="340" />
            </Array>
          </mxGeometry>
        </mxCell>
        <mxCell id="ui9Kb0gzcTowFGkWE3d2-5" value="" style="html=1;points=[[0,0,0,0,5],[0,1,0,0,-5],[1,0,0,0,5],[1,1,0,0,-5]];perimeter=orthogonalPerimeter;outlineConnect=0;targetShapes=umlLifeline;portConstraint=eastwest;newEdgeStyle={&quot;curved&quot;:0,&quot;rounded&quot;:0};" parent="1" vertex="1">
          <mxGeometry x="800" y="280" height="80" as="geometry" />
        </mxCell>
        <mxCell id="XqYQCwfPH4HnXKf9k88s-1" value="ref" style="shape=umlFrame;whiteSpace=wrap;html=1;pointerEvents=0;" vertex="1" parent="1">
          <mxGeometry x="75" y="120" width="140" height="80" as="geometry" />
        </mxCell>
        <mxCell id="XqYQCwfPH4HnXKf9k88s-2" value="Đăng nhập" style="text;html=1;align=center;verticalAlign=middle;resizable=0;points=[];autosize=1;strokeColor=none;fillColor=none;" vertex="1" parent="1">
          <mxGeometry x="105" y="160" width="80" height="30" as="geometry" />
        </mxCell>
        <mxCell id="XqYQCwfPH4HnXKf9k88s-3" value="" style="endArrow=classic;html=1;rounded=0;" edge="1" parent="1" source="hlCJ8NiJi-qlHMKmsmN_-1" target="XqYQCwfPH4HnXKf9k88s-1">
          <mxGeometry width="50" height="50" relative="1" as="geometry">
            <mxPoint x="10" y="200" as="sourcePoint" />
            <mxPoint x="60" y="150" as="targetPoint" />
            <Array as="points">
              <mxPoint x="50" y="160" />
            </Array>
          </mxGeometry>
        </mxCell>
        <mxCell id="XqYQCwfPH4HnXKf9k88s-7" value="Trạng thái đơn đặt hàng" style="shape=umlFrame;whiteSpace=wrap;html=1;pointerEvents=0;width=140;height=40;" vertex="1" parent="1">
          <mxGeometry x="90" y="560" width="750" height="240" as="geometry" />
        </mxCell>
        <mxCell id="XqYQCwfPH4HnXKf9k88s-8" value="" style="endArrow=none;dashed=1;html=1;rounded=0;" edge="1" parent="1">
          <mxGeometry width="50" height="50" relative="1" as="geometry">
            <mxPoint x="90" y="680" as="sourcePoint" />
            <mxPoint x="840" y="680" as="targetPoint" />
          </mxGeometry>
        </mxCell>
        <mxCell id="XqYQCwfPH4HnXKf9k88s-9" value="" style="html=1;points=[[0,0,0,0,5],[0,1,0,0,-5],[1,0,0,0,5],[1,1,0,0,-5]];perimeter=orthogonalPerimeter;outlineConnect=0;targetShapes=umlLifeline;portConstraint=eastwest;newEdgeStyle={&quot;curved&quot;:0,&quot;rounded&quot;:0};" vertex="1" parent="1">
          <mxGeometry x="265" y="620" width="10" height="40" as="geometry" />
        </mxCell>
        <mxCell id="XqYQCwfPH4HnXKf9k88s-10" value="thông báo đặt&lt;div&gt;hàng thất bại&lt;/div&gt;" style="html=1;align=left;spacingLeft=2;endArrow=block;rounded=0;edgeStyle=orthogonalEdgeStyle;curved=0;rounded=0;" edge="1" parent="1" target="XqYQCwfPH4HnXKf9k88s-9" source="hlCJ8NiJi-qlHMKmsmN_-4">
          <mxGeometry relative="1" as="geometry">
            <mxPoint x="265" y="600" as="sourcePoint" />
            <Array as="points">
              <mxPoint x="320" y="600" />
              <mxPoint x="320" y="640" />
            </Array>
          </mxGeometry>
        </mxCell>
        <mxCell id="XqYQCwfPH4HnXKf9k88s-11" value="Đặt hàng thành công" style="text;html=1;align=center;verticalAlign=middle;whiteSpace=wrap;rounded=0;" vertex="1" parent="1">
          <mxGeometry x="105" y="720" width="125" height="30" as="geometry" />
        </mxCell>
        <mxCell id="XqYQCwfPH4HnXKf9k88s-12" value="Đặt hàng thất bại" style="text;html=1;align=center;verticalAlign=middle;whiteSpace=wrap;rounded=0;" vertex="1" parent="1">
          <mxGeometry x="105" y="620" width="125" height="30" as="geometry" />
        </mxCell>
        <mxCell id="XqYQCwfPH4HnXKf9k88s-15" value="" style="html=1;points=[[0,0,0,0,5],[0,1,0,0,-5],[1,0,0,0,5],[1,1,0,0,-5]];perimeter=orthogonalPerimeter;outlineConnect=0;targetShapes=umlLifeline;portConstraint=eastwest;newEdgeStyle={&quot;curved&quot;:0,&quot;rounded&quot;:0};" vertex="1" parent="1">
          <mxGeometry x="265" y="740" width="10" height="40" as="geometry" />
        </mxCell>
        <mxCell id="ui9Kb0gzcTowFGkWE3d2-4" value="thông báo đặt&lt;div&gt;hàng thành công&lt;/div&gt;" style="html=1;align=left;spacingLeft=2;endArrow=block;rounded=0;edgeStyle=orthogonalEdgeStyle;curved=0;rounded=0;" parent="1" target="XqYQCwfPH4HnXKf9k88s-15" edge="1" source="hlCJ8NiJi-qlHMKmsmN_-4">
          <mxGeometry x="-0.0038" relative="1" as="geometry">
            <mxPoint x="264.5" y="723" as="sourcePoint" />
            <Array as="points">
              <mxPoint x="320" y="723" />
              <mxPoint x="320" y="763" />
            </Array>
            <mxPoint x="280" y="763" as="targetPoint" />
            <mxPoint as="offset" />
          </mxGeometry>
        </mxCell>
      </root>
    </mxGraphModel>
  </diagram>
</mxfile>
